<svg xmlns="http://www.w3.org/2000/svg" width="52.411" height="52.411" viewBox="0 0 52.411 52.411"><defs><style>.a{fill:#ee1c25;}</style></defs><g transform="translate(0 31.446)"><path class="a" d="M51.537,288H46.3a.874.874,0,0,0-.874.874H42.8a.874.874,0,0,0-.874.874v.157l-3.539.708-8.941-.865a.873.873,0,0,0-.6.169l-1.827,1.362-2.075-1.384a.874.874,0,0,0-.563-.147l-9.5.864-4.4-.73v-.134a.874.874,0,0,0-.874-.874H6.988A.874.874,0,0,0,6.115,288H.874a.874.874,0,0,0-.874.874V304.6a.874.874,0,0,0,.874.874H6.115a.874.874,0,0,0,.874-.874H9.609a.874.874,0,0,0,.874-.874h3.326L26.754,308.9a.88.88,0,0,0,.555.031l9.609-2.621a.86.86,0,0,0,.613-1.049l-.007-.026,4.455-1.251a.864.864,0,0,0,.824.61h2.621a.874.874,0,0,0,.874.874h5.241a.874.874,0,0,0,.874-.874V288.874A.874.874,0,0,0,51.537,288Zm-46.3,15.723H1.747V289.747H5.241Zm3.494-.874H6.988V290.621H8.735Zm18.4,4.321L14.3,302.038a.883.883,0,0,0-.325-.062H10.482V291.651l4.223.7a.915.915,0,0,0,.223.009l9.3-.846,1.3.866-2.358,1.753a2.987,2.987,0,0,0,1.65,5.48,3.076,3.076,0,0,0,1.712-.524l.508-.383,7.781,6.366Zm14.79-4.983-5.863,1.645-7.582-6.208,1.414-1.064-1.048-1.4-3.319,2.5a1.246,1.246,0,0,1-1.931-1.159,1.269,1.269,0,0,1,.585-.94l5.439-4.043,8.731.846a.9.9,0,0,0,.255-.014l3.319-.664Zm3.5.662H43.676V290.621h1.747Zm5.241.874H47.17V289.747h3.494Z" transform="translate(0 -288)"/></g><g transform="translate(12.763 48.113)"><g transform="translate(0 0)"><rect class="a" width="1.747" height="6.653" transform="translate(0 1.606) rotate(-66.791)"/></g></g><path class="a" d="M20.091,12.229H12.229V6.988a.874.874,0,0,0-.874-.874H8.735V2.621a.874.874,0,0,0-.874-.874H6.988V0H5.241V1.747H4.368a.874.874,0,0,0-.874.874V6.115H.874A.874.874,0,0,0,0,6.988V28.826a.874.874,0,0,0,.874.874H20.091a.874.874,0,0,0,.874-.874V13.1A.874.874,0,0,0,20.091,12.229ZM5.241,3.494H6.988V6.115H5.241Zm5.241,24.458H1.747V7.862h8.735Zm8.735-12.229H17.47V17.47h1.747v1.747H17.47v1.747h1.747v6.988H12.229V13.976h6.988Z"/><g transform="translate(3.085 12.893)"><g transform="translate(0 0)"><rect class="a" width="2.102" height="2.102"/></g></g><g transform="translate(7.288 12.893)"><g transform="translate(0 0)"><rect class="a" width="1.401" height="2.102"/></g></g><g transform="translate(3.085 16.397)"><g transform="translate(0 0)"><rect class="a" width="2.102" height="2.102" transform="translate(0 0)"/></g></g><g transform="translate(7.288 16.397)"><g transform="translate(0 0)"><rect class="a" width="1.401" height="2.102" transform="translate(0 0)"/></g></g><g transform="translate(3.085 19.9)"><g transform="translate(0 0)"><rect class="a" width="2.102" height="2.102"/></g></g><g transform="translate(13.594 15.696)"><g transform="translate(0 0)"><rect class="a" width="2.102" height="2.102" transform="translate(0 0)"/></g></g><g transform="translate(13.594 19.199)"><g transform="translate(0 0)"><rect class="a" width="2.102" height="2.102"/></g></g><g transform="translate(3.085 9.39)"><g transform="translate(0 0)"><rect class="a" width="2.102" height="2.102"/></g></g><g transform="translate(7.288 9.39)"><g transform="translate(0 0)"><rect class="a" width="1.401" height="2.102"/></g></g><g transform="translate(33.193)"><path class="a" d="M308.368,0V1.31a1.31,1.31,0,0,1-1.31,1.31A3.057,3.057,0,0,0,304,5.678v1.31h1.747V5.678a1.31,1.31,0,0,1,1.31-1.31,3.057,3.057,0,0,0,3.057-3.057V0Z" transform="translate(-304)"/></g><g transform="translate(31.446 1.747)"><path class="a" d="M308.659,33.681l-6.115-5.241a.873.873,0,0,0-1.442.663v1.844l-2.925-2.507a.874.874,0,0,0-1.442.663V33.47h-1.747V24.735h.874V22.988h-.631a1.741,1.741,0,0,1,1.5-.874,4.373,4.373,0,0,0,4.368-4.368V16h-1.747v1.747a2.621,2.621,0,0,1-2.621,2.621,3.494,3.494,0,0,0-3.37,2.621h-4.492v1.747h.874V33.47h-.874a.874.874,0,0,0-.874.874v8.735a.874.874,0,0,0,.874.874h19.217a.874.874,0,0,0,.874-.874V34.344A.874.874,0,0,0,308.659,33.681Zm-17.165-8.946h1.747V33.47h-1.747Zm15.723,17.47h-17.47V35.217h7.862a.874.874,0,0,0,.874-.874V31l2.925,2.508a.873.873,0,0,0,1.442-.663V31l4.368,3.744Z" transform="translate(-288 -16)"/></g><g transform="translate(43.721 24.103)"><g transform="translate(0 0)"><rect class="a" width="1.401" height="2.102"/></g></g><g transform="translate(47.224 24.103)"><g transform="translate(0 0)"><rect class="a" width="2.102" height="2.102" transform="translate(0)"/></g></g><g transform="translate(43.721 21.301)"><g transform="translate(0 0)"><rect class="a" width="1.401" height="1.401"/></g></g><g transform="translate(47.224 21.301)"><g transform="translate(0 0)"><rect class="a" width="2.102" height="1.401" transform="translate(0)"/></g></g><g transform="translate(34.613 22.702)"><g transform="translate(0 0)"><rect class="a" width="2.102" height="1.401"/></g></g><g transform="translate(38.817 22.702)"><g transform="translate(0 0)"><rect class="a" width="1.401" height="1.401" transform="translate(0)"/></g></g><g transform="translate(23.585 20.091)"><path class="a" d="M219.494,185.747V184h-1.747v1.747H216v1.747h1.747v1.747h1.747v-1.747h1.747v-1.747Z" transform="translate(-216 -184)"/></g></svg>