<svg xmlns="http://www.w3.org/2000/svg" width="45.595" height="45.587" viewBox="0 0 45.595 45.587"><defs><style>.a{fill:#ee1c25;}</style></defs><g transform="translate(0 -0.039)"><path class="a" d="M219.346,97.708a2.281,2.281,0,0,0-4.179-.547l-.38.661a.76.76,0,0,0-1.033.274l-1.93,3.29-.661-.38a.759.759,0,1,0-.76,1.314l.661.38-6.458,11.192-1.6,4.263-.76,1.421a2.28,2.28,0,0,0,.122,2.462l-1.71,2.1-.479-1.2a1.52,1.52,0,0,0-2.713-.213l-.273.463-.258-3.039a1.52,1.52,0,0,0-2.956-.357l-1.869,5.607a.76.76,0,0,0,.479.958.658.658,0,0,0,.236.06.76.76,0,0,0,.722-.516l1.861-5.607.266,3.084a1.52,1.52,0,0,0,2.819.654l.281-.464.471,1.193a1.519,1.519,0,0,0,2.6.387l1.77-2.241a2.34,2.34,0,0,0,.6.076,2.28,2.28,0,0,0,1.983-1.125l.76-1.269,2.895-3.518,6.526-11.329.661.38a.762.762,0,0,1,.281,1.041l-3.039,5.265a.754.754,0,1,0,1.284.79l3.039-5.265a2.279,2.279,0,0,0-.836-3.115l-.661-.38,1.9-3.29a.76.76,0,0,0-.273-1.033l.38-.661a2.279,2.279,0,0,0,.228-1.763Zm-2.864.213a.76.76,0,0,1,.464-.357.8.8,0,0,1,.577.076.76.76,0,0,1,.357.463.8.8,0,0,1-.076.577l-.38.661-1.322-.76Zm-10.356,21.214-.38-.22-1.124-.654,1.079-2.887,2.393,1.383Zm-2.279,2.2a.759.759,0,0,1-.228-1l.38-.661,1.322.76-.38.653a.759.759,0,0,1-1.094.243Zm5.113-5.82-2.629-1.52,6.078-10.531,2.629,1.52Zm6.838-11.845-2.629-1.52,1.52-2.629,2.629,1.52Zm0,0" transform="translate(-173.834 -86.865)"/><path class="a" d="M72.909,356.779l-2.689,2.682-1.611-1.611a.76.76,0,1,0-1.071,1.079l1.611,1.611a1.532,1.532,0,0,0,2.15,0l2.682-2.69a.76.76,0,0,0-1.071-1.071Zm0,0" transform="translate(-60.919 -322.694)"/><path class="a" d="M32,318.5a6.458,6.458,0,1,0,12.916,0,.76.76,0,0,0-1.52,0,4.939,4.939,0,1,1-1.976-3.951.76.76,0,0,0,.912-1.216A6.458,6.458,0,0,0,32,318.5Zm0,0" transform="translate(-28.961 -282.37)"/><path class="a" d="M92.514,49.559a.76.76,0,1,0,0-1.52H72.76a.76.76,0,0,0-.76.76v3.039a.76.76,0,0,0,.76.76H92.514a.76.76,0,1,0,0-1.52H73.52v-1.52Zm0,0" transform="translate(-65.162 -43.441)"/><path class="a" d="M96.76,112.039a.76.76,0,1,0,0,1.52h15.2a.76.76,0,1,0,0-1.52Zm0,0" transform="translate(-86.882 -101.363)"/><path class="a" d="M145.475,168.039H128.76a.76.76,0,0,0,0,1.52h16.715a.76.76,0,1,0,0-1.52Zm0,0" transform="translate(-115.843 -152.044)"/><path class="a" d="M72.715,216.8a.76.76,0,0,0-.76-.76H56.76a.76.76,0,1,0,0,1.52h15.2A.76.76,0,0,0,72.715,216.8Zm0,0" transform="translate(-50.681 -195.486)"/><path class="a" d="M254.078,216.039H248.76a.76.76,0,0,0,0,1.52h5.319a.76.76,0,0,0,0-1.52Zm0,0" transform="translate(-224.446 -195.486)"/><path class="a" d="M64.358,257.559a.76.76,0,0,0,0-1.52h-7.6a.76.76,0,0,0,0,1.52Zm0,0" transform="translate(-50.681 -231.687)"/><path class="a" d="M168.76,257.559h5.319a.76.76,0,0,0,0-1.52H168.76a.76.76,0,0,0,0,1.52Zm0,0" transform="translate(-152.044 -231.687)"/><path class="a" d="M34.191,34.989a.76.76,0,0,0-.76.76v7.6a.76.76,0,0,1-.76.76H2.279a.76.76,0,0,1-.76-.76V2.318a.76.76,0,0,1,.76-.76H32.671a.76.76,0,0,1,.76.76V16.587a.76.76,0,1,0,1.52,0V2.318A2.279,2.279,0,0,0,32.671.039H2.279A2.279,2.279,0,0,0,0,2.318V43.347a2.279,2.279,0,0,0,2.279,2.279H32.671a2.279,2.279,0,0,0,2.279-2.279v-7.6A.76.76,0,0,0,34.191,34.989Zm0,0"/></g></svg>