<svg xmlns="http://www.w3.org/2000/svg" width="48" height="48" viewBox="0 0 48 48"><defs><style>.a{fill:#ee1c25;}</style></defs><g transform="translate(16.8 16)"><rect class="a" width="1" height="2" transform="translate(0.2 0)"/></g><g transform="translate(16.8 19.2)"><rect class="a" width="1" height="2" transform="translate(0.2 -0.2)"/></g><g transform="translate(16.8 22.4)"><rect class="a" width="1" height="2" transform="translate(0.2 -0.4)"/></g><g transform="translate(16.8 25.6)"><rect class="a" width="1" height="1" transform="translate(0.2 0.4)"/></g><g transform="translate(20 16)"><rect class="a" width="2" height="2" transform="translate(0 0)"/></g><g transform="translate(20 19.2)"><rect class="a" width="2" height="2" transform="translate(0 -0.2)"/></g><g transform="translate(20 22.4)"><rect class="a" width="2" height="2" transform="translate(0 -0.4)"/></g><g transform="translate(20 25.6)"><rect class="a" width="2" height="1" transform="translate(0 0.4)"/></g><g transform="translate(23.2 16)"><rect class="a" width="2" height="2" transform="translate(-0.2 0)"/></g><g transform="translate(23.2 19.2)"><rect class="a" width="2" height="2" transform="translate(-0.2 -0.2)"/></g><g transform="translate(23.2 22.4)"><rect class="a" width="2" height="2" transform="translate(-0.2 -0.4)"/></g><g transform="translate(23.2 25.6)"><rect class="a" width="2" height="1" transform="translate(-0.2 0.4)"/></g><g transform="translate(26.4 16)"><rect class="a" width="2" height="2" transform="translate(-0.4 0)"/></g><g transform="translate(20 12.8)"><rect class="a" width="2" height="1" transform="translate(0 0.2)"/></g><g transform="translate(23.2 12.8)"><rect class="a" width="2" height="1" transform="translate(-0.2 0.2)"/></g><g transform="translate(26.4 12.8)"><rect class="a" width="2" height="1" transform="translate(-0.4 0.2)"/></g><g transform="translate(26.4 19.2)"><rect class="a" width="2" height="2" transform="translate(-0.4 -0.2)"/></g><g transform="translate(26.4 22.4)"><rect class="a" width="2" height="2" transform="translate(-0.4 -0.4)"/></g><g transform="translate(26.4 25.6)"><rect class="a" width="2" height="1" transform="translate(-0.4 0.4)"/></g><g transform="translate(29.6 16)"><rect class="a" width="1" height="2" transform="translate(0.4 0)"/></g><g transform="translate(29.6 19.2)"><rect class="a" width="1" height="2" transform="translate(0.4 -0.2)"/></g><g transform="translate(29.6 22.4)"><rect class="a" width="1" height="2" transform="translate(0.4 -0.4)"/></g><g transform="translate(29.6 25.6)"><rect class="a" width="1" height="1" transform="translate(0.4 0.4)"/></g><g transform="translate(0 0)"><g transform="translate(0 0)"><path class="a" d="M47.2,12h-12V.8a.8.8,0,0,0-.8-.8H13.6a.8.8,0,0,0-.8.8h0V12H.8a.8.8,0,0,0-.8.8H0V41.6a.8.8,0,0,0,.8.8H2.472a4.8,4.8,0,0,0-.072.8v4a.8.8,0,0,0,.8.8H44.8a.8.8,0,0,0,.8-.8h0v-4a4.78,4.78,0,0,0-.072-.8H47.2a.8.8,0,0,0,.8-.8h0V12.8A.8.8,0,0,0,47.2,12ZM34.4,34.4a1.6,1.6,0,1,1-1.6-1.6A1.6,1.6,0,0,1,34.4,34.4ZM15.2,32.8a1.6,1.6,0,1,1-1.6,1.6A1.6,1.6,0,0,1,15.2,32.8ZM10.4,46.4H4V43.2a3.2,3.2,0,1,1,6.4,0ZM5.6,36.8a1.6,1.6,0,1,1,1.6,1.6A1.6,1.6,0,0,1,5.6,36.8Zm4.921,2.942A4.822,4.822,0,0,0,9.515,39a3.2,3.2,0,1,0-4.63,0,4.831,4.831,0,0,0-1.836,1.8H1.6V13.6H12.8V32.306a3.156,3.156,0,0,0,.085,4.292A4.814,4.814,0,0,0,10.521,39.742ZM18.4,46.4H12V40.8a3.2,3.2,0,1,1,6.4,0Zm9.6,0H20V40.8a4,4,0,0,1,8,0ZM21.6,32.8A2.4,2.4,0,1,1,24,35.2,2.4,2.4,0,0,1,21.6,32.8Zm7.272,5.249a5.635,5.635,0,0,0-2.3-2.216,4,4,0,1,0-5.154,0,5.635,5.635,0,0,0-2.3,2.216A4.832,4.832,0,0,0,17.515,36.6,3.177,3.177,0,0,0,14.4,31.314V1.6H33.6V31.314A3.186,3.186,0,0,0,30.485,36.6,4.832,4.832,0,0,0,28.872,38.049ZM36,43.2v3.2H29.6V40.8a3.2,3.2,0,1,1,6.4,0Zm8,3.2H37.6V43.2a3.2,3.2,0,1,1,6.4,0Zm-4.8-9.6a1.6,1.6,0,1,1,1.6,1.6A1.6,1.6,0,0,1,39.2,36.8Zm7.2,4H44.951A4.831,4.831,0,0,0,43.115,39a3.2,3.2,0,1,0-4.63,0,4.82,4.82,0,0,0-1.006.745A4.813,4.813,0,0,0,35.115,36.6a3.156,3.156,0,0,0,.085-4.292V13.6H46.4V40.8Z" transform="translate(0 0)"/></g></g><g transform="translate(37.6 18.4)"><rect class="a" width="1" height="13" transform="translate(0.4 -0.4)"/></g><g transform="translate(42.4 18.4)"><rect class="a" width="2" height="13" transform="translate(-0.4 -0.4)"/></g><g transform="translate(4 18.4)"><rect class="a" width="2" height="13" transform="translate(0 -0.4)"/></g><g transform="translate(8.8 18.4)"><rect class="a" width="1" height="13" transform="translate(0.2 -0.4)"/></g><g transform="translate(18.4 3.2)"><path class="a" d="M194.4,32h-9.6a.8.8,0,0,0-.8.8h0v6.4a.8.8,0,0,0,.8.8h9.6a.8.8,0,0,0,.8-.8h0V32.8A.8.8,0,0,0,194.4,32Zm-.8,6.4h-8V33.6h8Z" transform="translate(-184 -32)"/></g></svg>